<svg width="133" height="68" viewBox="0 0 133 68" fill="none" xmlns="http://www.w3.org/2000/svg">
<path d="M1.44141 37V12.3906H4.5V33.9766H14.6602V37H1.44141ZM16.6289 31.7969V23.1133C16.6289 22.0117 17.1211 20.9336 18.1055 19.8789C19.3242 18.6133 20.8477 17.9805 22.6758 17.9805V20.8281C21.293 20.8281 20.332 21.4023 19.793 22.5508C19.6289 22.9023 19.5469 23.2539 19.5469 23.6055V31.3398C19.5469 32.207 19.9453 32.9453 20.7422 33.5547C21.3047 33.9766 21.9492 34.1875 22.6758 34.1875V37.0352C20.4492 37.0352 18.7266 36.1328 17.5078 34.3281C16.9219 33.4375 16.6289 32.5938 16.6289 31.7969ZM24.1875 37.0352V34.1875C25.4297 34.1875 26.3203 33.625 26.8594 32.5C27.0469 32.125 27.1406 31.7617 27.1406 31.4102V23.6055C27.1406 22.6445 26.7305 21.8828 25.9102 21.3203C25.3945 20.9922 24.8086 20.8281 24.1523 20.8281V17.9805C26.3086 17.9805 27.9727 18.8594 29.1445 20.6172C29.7305 21.4844 30.0234 22.3164 30.0234 23.1133V31.7969C30.0234 32.9453 29.5312 34.0586 28.5469 35.1367C27.3984 36.3789 25.9453 37.0117 24.1875 37.0352ZM32.168 22.4102V19.5273H34.4883V17.4883C34.4883 16.1758 34.9219 14.9805 35.7891 13.9023C36.75 12.7773 37.9922 12.2031 39.5156 12.1797H40.8164L40.1484 15.0273H39.4805C38.1445 15.0977 37.4648 15.918 37.4414 17.4883V19.5625L39.832 19.5273V22.4102H37.4414V37H34.4883V22.4102H32.168ZM41.8008 21.0391V18.1914H44.1211V12.1094H47.1094V18.1914H49.3594V21.0742H47.1094V31.1641C47.1094 32.8281 47.7891 33.7539 49.1484 33.9414C49.4062 33.9883 49.6641 34.0117 49.9219 34.0117H50.4141L51.082 37H49.8164C46.9336 36.9766 45.1641 35.8984 44.5078 33.7656C44.2734 32.9688 44.1562 31.9844 44.1562 30.8125L44.1211 21.0391H41.8008ZM52.6641 37V12.3906H55.7227V23.1133H58.8867V26.1016H55.7227V37H52.6641ZM60.6445 26.1016V23.1133H63.7734V12.3906H66.8672V37H63.7734V26.1016H60.6445ZM69.6094 31.7969V23.1133C69.6094 22.0117 70.1016 20.9336 71.0859 19.8789C72.3047 18.6133 73.8281 17.9805 75.6562 17.9805V20.8281C74.2734 20.8281 73.3125 21.4023 72.7734 22.5508C72.6094 22.9023 72.5273 23.2539 72.5273 23.6055V31.3398C72.5273 32.207 72.9258 32.9453 73.7227 33.5547C74.2852 33.9766 74.9297 34.1875 75.6562 34.1875V37.0352C73.4297 37.0352 71.707 36.1328 70.4883 34.3281C69.9023 33.4375 69.6094 32.5938 69.6094 31.7969ZM77.168 37.0352V34.1875C78.4102 34.1875 79.3008 33.625 79.8398 32.5C80.0273 32.125 80.1211 31.7617 80.1211 31.4102V23.6055C80.1211 22.6445 79.7109 21.8828 78.8906 21.3203C78.375 20.9922 77.7891 20.8281 77.1328 20.8281V17.9805C79.2891 17.9805 80.9531 18.8594 82.125 20.6172C82.7109 21.4844 83.0039 22.3164 83.0039 23.1133V31.7969C83.0039 32.9453 82.5117 34.0586 81.5273 35.1367C80.3789 36.3789 78.9258 37.0117 77.168 37.0352ZM85.6758 31.9375V18.0156H88.6641V31.5859C88.6641 32.4297 89.0859 33.1328 89.9297 33.6953C90.4922 34.0469 91.1133 34.2227 91.793 34.2227V37.1758C89.543 37.1758 87.8086 36.2969 86.5898 34.5391C85.9805 33.6484 85.6758 32.7812 85.6758 31.9375ZM93.3398 37.1758V34.2227C94.6055 34.2227 95.5312 33.7188 96.1172 32.7109C96.3281 32.3359 96.4336 31.9609 96.4336 31.5859V18.0156H99.4219V31.9375C99.4219 33.0391 98.918 34.1289 97.9102 35.207C96.6914 36.4961 95.168 37.1523 93.3398 37.1758ZM101.461 32.0078L104.238 31.4805C104.238 32.5352 104.789 33.3672 105.891 33.9766C106.43 34.2344 106.945 34.375 107.438 34.3984V37.1758C105.164 37.1758 103.465 36.3555 102.34 34.7148C101.754 33.8477 101.461 32.9453 101.461 32.0078ZM101.637 23.3594C101.637 21.2266 102.609 19.6445 104.555 18.6133C105.492 18.1211 106.43 17.875 107.367 17.875V20.6172C106.289 20.6172 105.457 21.0625 104.871 21.9531C104.566 22.3984 104.414 22.8672 104.414 23.3594C104.414 24.1094 105 24.7188 106.172 25.1875C107.062 25.5625 108.785 26.0547 111.34 26.6641C112.934 26.9922 114.07 27.7773 114.75 29.0195C115.102 29.6758 115.277 30.4141 115.277 31.2344C115.277 33.4844 114.375 35.1484 112.57 36.2266C111.516 36.8594 110.309 37.1758 108.949 37.1758V34.3984C110.027 34.3984 110.93 34.0234 111.656 33.2734C112.172 32.7344 112.43 32.1016 112.43 31.375C112.43 30.4375 111.504 29.6875 109.652 29.125C109.184 28.9844 108.434 28.7852 107.402 28.5273C106.301 28.2695 105.504 28.0586 105.012 27.8945C103.23 27.1914 102.152 26.125 101.777 24.6953C101.684 24.2734 101.637 23.8281 101.637 23.3594ZM108.914 20.6523V17.875C110.93 17.875 112.559 18.625 113.801 20.125C114.574 21.0859 114.961 22.0938 114.961 23.1484L112.184 23.6055C112.184 22.3164 111.48 21.4141 110.074 20.8984C109.652 20.7344 109.266 20.6523 108.914 20.6523ZM117.352 31.7969V23.0781C117.375 22 117.891 20.9336 118.898 19.8789C120.117 18.6367 121.594 18.0039 123.328 17.9805V20.7578C122.203 20.7578 121.324 21.25 120.691 22.2344C120.434 22.6562 120.305 23.043 120.305 23.3945V25.7852H128.18V23.3945C128.18 22.3398 127.641 21.5664 126.562 21.0742C126.07 20.8398 125.566 20.7227 125.051 20.7227V17.9805C126.668 17.9805 128.109 18.5547 129.375 19.7031C130.43 20.7109 130.969 21.8242 130.992 23.043V28.6328H120.305V31.7969C120.305 32.4531 120.68 33.0625 121.43 33.625C122.039 34.0469 122.684 34.2578 123.363 34.2578V37C121.23 37 119.555 36.1328 118.336 34.3984C117.68 33.4844 117.352 32.6172 117.352 31.7969ZM125.051 37V34.2227C126.457 34.2227 127.512 33.6133 128.215 32.3945C128.355 32.1367 128.461 31.8906 128.531 31.6562L131.027 32.5703C130.605 34.1875 129.645 35.4062 128.145 36.2266C127.184 36.7422 126.152 37 125.051 37Z" fill="white"/>
<path d="M8.068 65V56.48H8.908V64.256H13.828V65H8.068ZM16.5041 65V56.48H17.3441V65H16.5041ZM20.8847 56.48L23.9327 63.956L26.9687 56.48H27.8447L24.3167 65H23.5487L20.0087 56.48H20.8847ZM30.5052 65V56.48H31.3452V65H30.5052ZM35.7618 58.028V65H34.9218V56.48H35.6178L41.2098 63.584V56.492H42.0498V65H41.2698L35.7618 58.028ZM49.0513 65.06C48.4833 65.06 47.9553 64.94 47.4673 64.7C46.9793 64.452 46.5553 64.12 46.1953 63.704C45.8353 63.288 45.5553 62.824 45.3553 62.312C45.1633 61.8 45.0673 61.272 45.0673 60.728C45.0673 60.152 45.1633 59.608 45.3553 59.096C45.5553 58.576 45.8313 58.116 46.1833 57.716C46.5353 57.316 46.9513 57 47.4313 56.768C47.9113 56.536 48.4353 56.42 49.0033 56.42C49.8433 56.42 50.5273 56.592 51.0553 56.936C51.5833 57.28 51.9833 57.728 52.2553 58.28L51.6073 58.712C51.3353 58.184 50.9713 57.796 50.5153 57.548C50.0593 57.3 49.5513 57.176 48.9913 57.176C48.5193 57.176 48.0913 57.276 47.7073 57.476C47.3313 57.676 47.0073 57.944 46.7353 58.28C46.4633 58.616 46.2553 58.996 46.1113 59.42C45.9753 59.844 45.9073 60.284 45.9073 60.74C45.9073 61.22 45.9873 61.676 46.1473 62.108C46.3073 62.532 46.5353 62.912 46.8313 63.248C47.1273 63.576 47.4673 63.836 47.8513 64.028C48.2433 64.212 48.6633 64.304 49.1113 64.304C49.6313 64.304 50.1233 64.176 50.5873 63.92C51.0513 63.656 51.4953 63.252 51.9193 62.708V63.596C51.1113 64.572 50.1553 65.06 49.0513 65.06ZM51.7873 61.46H49.8913V60.812H52.4953V65H51.7873V61.46ZM59.5957 60.68C59.5957 60.16 59.6837 59.652 59.8597 59.156C60.0437 58.652 60.3077 58.196 60.6517 57.788C60.9957 57.372 61.4197 57.044 61.9237 56.804C62.4277 56.556 62.9997 56.432 63.6397 56.432C64.3997 56.432 65.0477 56.608 65.5837 56.96C66.1277 57.304 66.5277 57.748 66.7837 58.292L66.1237 58.7C65.9397 58.324 65.7077 58.028 65.4277 57.812C65.1477 57.588 64.8477 57.428 64.5277 57.332C64.2157 57.236 63.9037 57.188 63.5917 57.188C63.0797 57.188 62.6277 57.292 62.2357 57.5C61.8437 57.7 61.5117 57.972 61.2397 58.316C60.9757 58.652 60.7757 59.032 60.6397 59.456C60.5037 59.872 60.4357 60.296 60.4357 60.728C60.4357 61.2 60.5157 61.652 60.6757 62.084C60.8357 62.516 61.0597 62.9 61.3477 63.236C61.6357 63.564 61.9717 63.828 62.3557 64.028C62.7477 64.22 63.1717 64.316 63.6277 64.316C63.9477 64.316 64.2757 64.26 64.6117 64.148C64.9477 64.036 65.2597 63.864 65.5477 63.632C65.8437 63.4 66.0797 63.1 66.2557 62.732L66.9517 63.092C66.7757 63.516 66.5037 63.876 66.1357 64.172C65.7677 64.468 65.3557 64.692 64.8997 64.844C64.4517 64.996 64.0117 65.072 63.5797 65.072C62.9957 65.072 62.4597 64.948 61.9717 64.7C61.4837 64.444 61.0597 64.108 60.6997 63.692C60.3477 63.268 60.0757 62.796 59.8837 62.276C59.6917 61.748 59.5957 61.216 59.5957 60.68ZM73.1645 65.06C72.5645 65.06 72.0205 64.94 71.5325 64.7C71.0445 64.46 70.6245 64.136 70.2725 63.728C69.9205 63.312 69.6485 62.848 69.4565 62.336C69.2645 61.816 69.1685 61.284 69.1685 60.74C69.1685 60.172 69.2685 59.632 69.4685 59.12C69.6685 58.6 69.9485 58.14 70.3085 57.74C70.6765 57.332 71.1045 57.012 71.5925 56.78C72.0805 56.54 72.6085 56.42 73.1765 56.42C73.7765 56.42 74.3205 56.544 74.8085 56.792C75.2965 57.04 75.7125 57.372 76.0565 57.788C76.4085 58.204 76.6805 58.668 76.8725 59.18C77.0645 59.692 77.1605 60.216 77.1605 60.752C77.1605 61.32 77.0605 61.864 76.8605 62.384C76.6605 62.896 76.3805 63.356 76.0205 63.764C75.6605 64.164 75.2365 64.48 74.7485 64.712C74.2605 64.944 73.7325 65.06 73.1645 65.06ZM70.0085 60.74C70.0085 61.204 70.0845 61.652 70.2365 62.084C70.3885 62.508 70.6045 62.888 70.8845 63.224C71.1645 63.552 71.4965 63.816 71.8805 64.016C72.2725 64.208 72.7005 64.304 73.1645 64.304C73.6525 64.304 74.0885 64.204 74.4725 64.004C74.8645 63.796 75.1965 63.524 75.4685 63.188C75.7485 62.844 75.9605 62.46 76.1045 62.036C76.2485 61.612 76.3205 61.18 76.3205 60.74C76.3205 60.276 76.2445 59.832 76.0925 59.408C75.9405 58.984 75.7205 58.604 75.4325 58.268C75.1525 57.932 74.8205 57.668 74.4365 57.476C74.0525 57.284 73.6285 57.188 73.1645 57.188C72.6845 57.188 72.2485 57.288 71.8565 57.488C71.4725 57.688 71.1405 57.96 70.8605 58.304C70.5885 58.64 70.3765 59.02 70.2245 59.444C70.0805 59.868 70.0085 60.3 70.0085 60.74ZM87.7322 65V58.064L84.6482 63.452H84.1202L81.0242 58.064V65H80.1842V56.48H81.0482L84.3722 62.312L87.7202 56.48H88.5722V65H87.7322ZM92.1477 65V56.48H95.6757C96.0437 56.48 96.3797 56.556 96.6837 56.708C96.9957 56.86 97.2637 57.068 97.4877 57.332C97.7117 57.588 97.8877 57.876 98.0157 58.196C98.1437 58.508 98.2077 58.828 98.2077 59.156C98.2077 59.62 98.1037 60.06 97.8957 60.476C97.6957 60.884 97.4117 61.216 97.0437 61.472C96.6757 61.728 96.2437 61.856 95.7477 61.856H92.9877V65H92.1477ZM92.9877 61.112H95.7117C96.0477 61.112 96.3397 61.02 96.5877 60.836C96.8357 60.652 97.0277 60.412 97.1637 60.116C97.2997 59.82 97.3677 59.5 97.3677 59.156C97.3677 58.804 97.2877 58.48 97.1277 58.184C96.9677 57.888 96.7557 57.656 96.4917 57.488C96.2357 57.312 95.9517 57.224 95.6397 57.224H92.9877V61.112ZM101.053 65V56.48H101.893V64.256H106.813V65H101.053ZM115.213 64.256V65H109.489V56.48H115.105V57.224H110.329V60.296H114.493V61.004H110.329V64.256H115.213ZM118.193 56.48L120.977 60.188L123.749 56.48H124.697L121.433 60.8L124.601 65H123.653L120.977 61.412L118.289 65H117.329L120.497 60.8L117.233 56.48H118.193Z" fill="white"/>
</svg>
